<?xml version="1.0" standalone="no"?><svg xmlns="http://www.w3.org/2000/svg" viewBox="0 0 1440 320"><path fill="#333333" fill-opacity="0.7" d="M0,160L26.7,181.3C53.3,203,107,245,160,245.3C213.3,245,267,203,320,192C373.3,181,427,203,480,202.7C533.3,203,587,181,640,149.3C693.3,117,747,75,800,74.7C853.3,75,907,117,960,128C1013.3,139,1067,117,1120,122.7C1173.3,128,1227,160,1280,170.7C1333.3,181,1387,171,1413,165.3L1440,160L1440,320L1413.3,320C1386.7,320,1333,320,1280,320C1226.7,320,1173,320,1120,320C1066.7,320,1013,320,960,320C906.7,320,853,320,800,320C746.7,320,693,320,640,320C586.7,320,533,320,480,320C426.7,320,373,320,320,320C266.7,320,213,320,160,320C106.7,320,53,320,27,320L0,320Z"></path></svg>
