<svg xmlns="http://www.w3.org/2000/svg" width="256" height="256"><path fill="#1976D2" fill-opacity=".016" fill-rule="evenodd" d="M0 128.004v128.004l128.25-.254 128.25-.254.254-127.75L257.008 0H0zm.485.496c0 70.4.119 99.053.265 63.672s.146-92.98 0-128S.485 58.1.485 128.5"/><path fill="#1976D2" fill-opacity=".091" fill-rule="evenodd" d="M161.352 11.092c-6.567 1.903-11.419 10.539-15.391 27.398-4.362 18.513-7.215 36.582-17.44 110.426-1.935 13.978-3.662 25.559-3.837 25.734s-.9-5.862-1.612-13.416c-1.625-17.262-3.393-29.023-10.931-72.734-6.754-39.168-8.823-48.83-12.691-59.264-6.147-16.584-17.598-22.32-28.885-14.469-16.187 11.259-45.289 82.806-62.08 152.62C2.527 192.159.635 204.369.565 218.5c-.058 11.694.171 13.479 2.281 17.764 3.283 6.667 9.377 10.225 16.139 9.424 11.734-1.39 21.768-9.11 67.076-51.607l16.439-15.419 1.244 11.919c2.21 21.168 4.298 35.781 5.979 41.852 3.202 11.56 11.836 16.572 19.987 11.602 7.99-4.872 9.634-12.295 21.266-96.035 8.462-60.921 14.131-96.586 15.069-94.812 1.246 2.354 6.746 31.307 16.459 86.644 15.165 86.391 17.505 95.79 25.529 102.542 4.815 4.052 10.778 3.695 15.921-.952 8.346-7.539 9.858-15.411 21.045-109.553 3.8-31.973 7.364-65.857 10.112-96.13 1.108-12.203 1.069-14.138-.34-17.093-3.797-7.963-15.466-8.117-19.125-.251-1.41 3.032-2.542 11.777-4.675 36.105-.578 6.6-1.237 13.575-1.463 15.5s-.908 8.675-1.517 15-1.971 18.475-3.028 27c-1.628 13.13-3.163 26.168-8.594 73-.588 5.067-2.265 10.27-2.339 7.255-.059-2.448-20.034-115.046-23.018-129.755-7.31-36.036-12.789-48.955-21.826-51.465-2.027-.563-3.911-.986-4.186-.939-.275.046-1.917.495-3.648.996M70.565 54.25c-16.379 33.662-31.33 77.83-41.929 123.87C24.974 194.024 22 212.066 22 218.372v3.615l2.25-1.887c1.237-1.037 5.625-4.67 9.75-8.073s16.775-14.908 28.111-25.567c16.025-15.067 32.129-29.589 37.678-33.976.442-.35-3.069-22.603-9.151-57.984-4.694-27.31-6.38-35.983-10.353-53.25C80 40.013 79.366 39 78.876 39c-.489 0-4.229 6.862-8.311 15.25"/><path fill="#1976D2" fill-opacity=".049" fill-rule="evenodd" d="M250.81 23.417c-2.787 2.312-2.243-1.415-7.31 50.083-2.247 22.825-4.827 45.927-6.017 53.865-.259 1.724-1.814 14.85-3.457 29.168-3.632 31.663-4.591 38.823-7.094 52.967-6.299 35.579-14.701 36.638-23.802 3-3.021-11.162-7.132-32.958-18.11-96-5.619-32.268-8.495-48.008-12.609-69-2.08-10.615-6.253-24.5-7.363-24.5-.962 0-3.074 6.001-5.456 15.5-3.018 12.039-7.908 43.508-17.091 110-1.443 10.45-2.812 20.35-3.041 22-6.421 46.169-10.02 63.23-14.046 66.571-4.122 3.421-10.058-5.402-12.829-19.071-.836-4.125-2.246-15.375-3.133-25s-1.96-18.175-2.384-19-.419-2.4.01-3.5c.43-1.1.813-2.998.852-4.219.143-4.514-4.378-.895-36.104 28.906-34.436 32.346-45.073 40.636-53.336 41.567-4.06.458-4.954.181-7.657-2.368-1.683-1.587-4.209-4.684-5.614-6.882l-2.555-3.996-.955 2.864c-2.225 6.676 4.006 16.563 11.651 18.489 11.993 3.019 22.188-3.894 65.516-44.428 12.307-11.513 22.77-21.083 23.25-21.266.481-.184.874.604.874 1.75s.375 2.083.832 2.083c.458 0 .622 2.539.365 5.643-.296 3.566-.106 5.419.517 5.034.622-.384.804 1.28.495 4.503-.385 4.001-.212 4.94.796 4.317.981-.606 1.126-.155.61 1.901-.787 3.137.884 17.433 3.052 26.102 1.96 7.837 4.856 12.403 8.953 14.115 4.639 1.938 7.239 1.735 11.083-.865 7.936-5.368 9.702-13.662 22.303-104.75 3.918-28.325 8.444-59.275 10.059-68.777S165 52.418 165 51.773c0-.731.337-.815.895-.223 1.258 1.335 6.741 29.662 15.572 80.45 13.411 77.132 18.419 99.818 23.659 107.177 4.448 6.247 13.356 7.52 18.57 2.655 7.35-6.859 10.544-21.522 17.28-79.332 1.666-14.3 4.155-35 5.531-46C248.458 100.907 256 25.925 256 22.124c0-1.468-2.664-.804-5.19 1.293M74.702 28.035C67.603 36.328 53.391 67.01 42.62 97.297c-20.05 56.372-32.98 117.37-27.236 128.479.917 1.773 1.872 3.224 2.121 3.224 1.354 0 4.496-8.525 4.501-12.21.03-21.922 17.305-86.925 35.422-133.29C64.406 65.64 77.488 38 78.961 38c1.423 0 5.715 19.774 10.968 50.531 2.721 15.933 5.853 34.144 6.96 40.469s2.312 14.2 2.678 17.5c.439 3.955 1.367 6.767 2.724 8.25 2.88 3.149 3.312 2.852 2.91-2-1.488-17.96-15.069-102.734-18.709-116.78-3.362-12.977-5.971-14.733-11.79-7.935m22.626 3.019c.365 1.345 1.363 7.087 2.218 12.759s4.258 26.372 7.561 46c3.983 23.668 7.144 46.801 9.384 68.687 5.209 50.894 5.845 56.497 6.356 55.986.262-.261.848-7.565 1.303-16.231.72-13.718.506-18.704-1.654-38.561-3.103-28.522-16.685-109.861-18.45-110.492-.459-.164-.604-1.176-.323-2.25s.07-1.952-.468-1.952-.75-1.192-.471-2.649c.372-1.949.175-2.444-.746-1.874-.927.573-1.067.189-.538-1.477.532-1.676.392-2.051-.55-1.469-.921.569-1.112.195-.701-1.375.31-1.186.108-2.156-.45-2.156-.557 0-.796-.565-.531-1.255.265-.691-.213-1.904-1.061-2.697-1.369-1.279-1.468-1.165-.879 1.006m84.118.225c-.27.704 1.964 14.766 4.965 31.25 4.659 25.599 9.616 53.641 19.702 111.471 1.871 10.727 6.176 31.658 7.918 38.5.51 2.002.798-.43.867-7.309.065-6.563-.257-10.087-.887-9.698-.543.336-.759.014-.479-.715.444-1.158-6.215-40.472-18.171-107.278-1.969-11-3.915-20.128-4.325-20.285s-.533-1.394-.274-2.75.031-2.465-.507-2.465-.763-1.125-.5-2.5.038-2.5-.5-2.5-.75-1.192-.471-2.649c.31-1.624.119-2.409-.495-2.03-.612.378-.806-.398-.5-2 .354-1.851.154-2.404-.684-1.886-.858.531-.996-.021-.499-2 .497-1.981.359-2.532-.5-2-.86.531-.997-.02-.5-2 .497-1.981.359-2.532-.5-2-.86.531-.997-.02-.5-2 .515-2.054.374-2.541-.567-1.959-.928.574-1.068.191-.539-1.476.532-1.676.392-2.051-.55-1.469-.921.569-1.112.195-.701-1.375.607-2.323.005-2.981-.803-.877"/><path fill="#1976D2" fill-opacity=".193" fill-rule="evenodd" d="M253.768 26c-.321.825-1.11 7.575-1.752 15-1.364 15.767-5.822 60.133-6.481 64.5-.989 6.555-5.468 42.392-6.061 48.5-.348 3.575-.797 7.625-.999 9s-.86 7.073-1.462 12.662-1.249 10.99-1.439 12c-.189 1.011-1.104 6.788-2.031 12.838-3.597 23.446-7.83 34.984-13.89 37.861-1.901.901-3.994 1.639-4.653 1.639-3.085 0-8.26-3.619-10.539-7.371l-2.508-4.129.576 3.467c.831 4.999 3.991 9.577 7.888 11.427 4.428 2.101 7.387 2.023 11.188-.295 7.98-4.866 11.404-17.581 16.86-62.599 8.377-69.128 10.783-90.271 13.571-119.257 2.849-29.639 3.326-39.337 1.732-35.243M76.38 31.712c-14.276 21.911-35.14 77.496-47.398 126.277-7.102 28.264-11.798 59.771-9.151 61.406 1.124.695 1.623-1.49 2.715-11.895 2.099-20.003 15.099-70.28 26.465-102.351C60.836 71.781 76.748 37 80.189 37c.564 0 .766.675.449 1.5-.316.825-.091 1.5.502 1.5.692 0 .806-.983.318-2.75-.417-1.513-1.029-4.455-1.358-6.538l-.6-3.788zm83.761 31.007c-2.309 14.18-7.566 50.081-11.682 79.781-8.237 59.423-9.626 68.249-12.581 79.913-2.769 10.933-5.237 15.421-9.445 17.18-4.258 1.779-7.557 1.027-11.448-2.607-1.643-1.535-3.239-2.385-3.545-1.888s-.055.902.56.902.863.412.552.915c-.944 1.528 4.293 6.879 7.895 8.067 2.648.874 4.105.81 6.717-.295 9.628-4.073 11.112-10.184 22.818-93.943C160.052 78.694 163.798 54.72 165.724 50c.799-1.959.31-11.274-.645-12.281-.407-.429-2.629 10.821-4.938 25M99.876 173.672c-3.507 3.12-15.602 14.323-26.879 24.896-37.713 35.359-47.721 42.399-58.541 41.18-2.369-.267-5.526-1.445-7.016-2.617-3.775-2.969-4.764-2.659-2.917.913 2.285 4.42 7.027 6.952 12.977 6.93 11.342-.041 21.902-7.687 60.001-43.445 9.392-8.816 19.14-17.898 21.661-20.183 2.986-2.705 5.131-5.756 6.15-8.75.862-2.528 1.426-4.596 1.253-4.596-.172 0-3.182 2.553-6.689 5.672"/></svg>