<svg xmlns="http://www.w3.org/2000/svg" width="1024" height="1024"><path d="M325.5 184.928c-5.479 1.321-11.085 5.789-19.109 15.23-13.169 15.496-23.916 30.695-31.351 44.342-2.397 4.4-5.126 9.125-6.065 10.5-6.541 9.586-10.484 16.656-26.494 47.5l-11.206 21.586c-3.88 7.473-7.473 14.448-7.985 15.5-.512 1.053-2.349 4.614-4.083 7.914-4.959 9.435-33.539 67.022-38.215 77-2.32 4.95-6.369 13.5-8.997 19-2.629 5.5-7.115 15.4-9.97 22-2.854 6.6-6.053 13.908-7.108 16.239-1.054 2.332-1.917 4.683-1.917 5.225 0 .542-1.282 3.81-2.849 7.261-9.314 20.512-12.821 33.554-11.136 41.41 1.975 9.207 11.884 17.425 19.101 15.839 3.096-.679 9.884-5.953 9.884-7.678 0-.42 1.29-3.428 2.867-6.683 2.449-5.054 4.135-9.732 4.181-11.596.007-.27.947-2.635 2.09-5.254 1.143-2.62 3.414-8.574 5.047-13.233 1.633-4.658 3.268-8.933 3.634-9.5.697-1.08 2.195-4.988 4.801-12.53 6.257-18.102 18.92-45.345 22.486-48.374 2.161-1.835 2.294-1.83 6.577.25 7.349 3.571 7.93 3.41 32.317-8.922 8.539-4.318 18.151-8.957 22-10.617 1.925-.831 4.774-2.147 6.331-2.924 1.557-.777 3.348-1.413 3.981-1.413 1.183 0 10.835-3.547 13.924-5.117.955-.486 2.237-.883 2.849-.883.612 0 2.531-.633 4.264-1.406 1.733-.773 5.401-2.172 8.151-3.11 2.75-.937 5.675-1.956 6.5-2.263 4.809-1.793 18.036-5.345 27-7.252 2.475-.526 6.525-1.39 9-1.919 7.707-1.649 8.625-1.395 11.756 3.244 3.262 4.832 24.244 46.949 24.244 48.663 0 1.401 9.474 19.443 17.137 32.636 3.225 5.551 5.863 10.528 5.863 11.061 0 .533.788 1.847 1.75 2.92.962 1.074 4.366 5.409 7.564 9.634 11.097 14.663 25.761 25.789 33.993 25.791 12.451.004 23.797-10.613 25.344-23.713 1.119-9.485-1.91-14.855-18.174-32.22C457.266 460.3 451 452.723 451 451.56c0-.554-10.007-15.925-16.126-24.77-1.031-1.49-1.874-3.21-1.874-3.822 0-.612-2.363-5.259-5.25-10.327s-6.775-12.573-8.64-16.678a1255.816 1255.816 0 00-7.668-16.463l-6.86-14.437c-1.42-2.991-2.582-5.994-2.582-6.674 0-1.036-6.294-16.272-11.584-28.04-.779-1.733-1.416-3.849-1.416-4.703 0-.853-2.025-6.496-4.5-12.538-2.475-6.043-4.509-11.802-4.52-12.798-.01-.995-2.035-6.53-4.5-12.299-2.464-5.769-4.48-11.12-4.48-11.891 0-.772-1.8-5.208-4-9.86-2.2-4.651-4-9.102-4-9.891 0-.79-1.181-3.766-2.624-6.613-2.72-5.369-7.541-18.567-9.956-27.256-.764-2.75-2.079-6.835-2.921-9.077-1.372-3.65-1.373-4.528-.016-8.376.835-2.364 1.517-6.699 1.517-9.632 0-4.461-.426-5.729-2.603-7.747-3.487-3.234-13.437-4.538-20.897-2.74m268.929 4.992c-5.487 2.13-9.098 4.62-10.631 7.33-.699 1.237-1.553 6.75-1.898 12.25-.344 5.5-1.373 15.4-2.286 22-1.826 13.201-11.09 59.996-12.729 64.295-.567 1.488-4.382 18.23-8.479 37.205-7.09 32.842-14.645 64.454-23.314 97.548-9.054 34.57-11.305 52.355-8.674 68.55 2.004 12.334 4.766 18.373 10.135 22.165 3.532 2.495 4.657 2.755 10.701 2.479l6.754-.308 6.303-6.246c3.466-3.436 7.836-8.777 9.71-11.87l3.408-5.624.836-24.097c.664-19.119 1.554-28.951 4.312-47.597 1.911-12.925 4.129-26.2 4.929-29.5.8-3.3 2.839-14.775 4.531-25.5 4.707-29.822 10.453-58.216 16.493-81.5 2.871-11.066 7.549-25.5 8.263-25.495.674.005 8.163 11.989 11.097 17.761.765 1.504 1.89 3.723 2.5 4.933.611 1.209 3.979 7.009 7.486 12.888 3.507 5.879 7.615 13.044 9.129 15.923 1.514 2.878 5.057 8.728 7.874 13 2.817 4.272 5.121 8.131 5.121 8.576 0 .445 2.716 5.12 6.035 10.389 3.319 5.268 6.459 10.694 6.977 12.056.518 1.362 3.669 6.533 7.003 11.492 3.335 4.959 6.349 9.795 6.698 10.746.35.952 2.868 5.063 5.596 9.135 2.728 4.073 6.192 9.698 7.698 12.5 1.505 2.803 5.607 9.732 9.115 15.398s7.075 11.516 7.926 13c.852 1.484 3.214 5.264 5.25 8.4s3.702 5.996 3.702 6.356c0 .36 1.321 2.323 2.937 4.362 1.615 2.039 3.503 5.029 4.197 6.644.693 1.615 2.746 5.021 4.563 7.57 1.817 2.549 3.303 5.048 3.303 5.553 0 .505 1.284 2.695 2.853 4.866 1.569 2.171 3.114 4.847 3.433 5.947.32 1.1 1.321 4.021 2.226 6.491.904 2.469 1.787 5.619 1.962 7 .533 4.203 8.934 20.686 12.452 24.43 1.141 1.215 2.074 2.66 2.074 3.213 0 .553 1.35 2.518 3 4.366 1.65 1.848 3 3.643 3 3.988 0 1.661 9.038 4.367 15.226 4.559 8.039.25 12.32-1.044 17.661-5.336 5.09-4.09 6.973-9.888 6.891-21.211-.034-4.675.262-14.8.658-22.5.61-11.858 1.35-17.323 3.994-29.5.179-.825 1.342-7.35 2.583-14.5 1.242-7.15 4.851-26.275 8.02-42.5 3.169-16.225 6.295-32.875 6.947-37 .651-4.125 2.522-13.8 4.156-21.5 4.072-19.19 5.733-27.381 6.386-31.5.306-1.925 1.182-5.975 1.948-9 1.46-5.769 2.15-8.778 5.391-23.5 1.09-4.95 2.491-11.276 3.114-14.057.901-4.025.831-6.503-.343-12.134-2.119-10.162-7.412-20.996-11.632-23.809-6.175-4.117-18.778-5.7-23.976-3.012-3.53 1.825-3.72 3.246-4.477 33.512-.37 14.821-1.17 25.228-2.574 33.5-1.121 6.6-2.475 16.212-3.009 21.36-1.096 10.559-7.493 43.7-15.467 80.14-6.368 29.1-15.848 67.684-16.883 68.719-.21.21-2.214-2.454-4.454-5.919-2.239-3.465-4.927-7.425-5.971-8.8-1.045-1.375-2.701-4.075-3.681-6-.98-1.925-2.97-5.075-4.422-7-1.453-1.925-3.417-5.075-4.366-7-2.146-4.354-14.1-23.886-18.47-30.18-1.788-2.574-3.25-4.961-3.25-5.305 0-.344-1.833-3.324-4.073-6.623-2.24-3.298-4.692-7.479-5.449-9.291-.757-1.811-3.649-6.593-6.427-10.625-2.778-4.033-5.051-7.706-5.051-8.163 0-.457-2.475-4.668-5.5-9.357-3.025-4.689-5.5-8.902-5.5-9.363 0-.46-2.286-4.338-5.08-8.618s-6.281-9.938-7.75-12.574c-1.468-2.636-4.914-8.529-7.657-13.097-2.743-4.567-5.49-9.429-6.105-10.804-.615-1.375-3.883-7.123-7.263-12.774-3.38-5.65-6.145-10.716-6.145-11.258 0-.541-2.4-5.593-5.333-11.226-2.933-5.633-5.903-11.817-6.601-13.742-.697-1.925-1.659-4.4-2.137-5.5-5.156-11.869-8.891-23.469-9.433-29.302-.503-5.41-5.978-15.397-9.88-18.022-7.562-5.086-19.822-6.502-28.187-3.256M312.2 238.2c-.66.66-1.2 1.553-1.2 1.985 0 .788-4.321 8.278-8.546 14.815-1.245 1.925-5.388 9.575-9.207 17-3.819 7.425-8.579 16.2-10.577 19.5-1.999 3.3-6.252 11.175-9.452 17.5-3.2 6.325-9.885 19.375-14.856 29s-11.422 22.675-14.336 29a3981.89 3981.89 0 01-8.737 18.842c-1.891 4.038-3.196 7.584-2.9 7.881.297.296 2.243-.226 4.325-1.16 6.778-3.041 7.733-3.415 11.786-4.62 2.2-.654 4.781-1.583 5.736-2.066.955-.482 2.778-.877 4.05-.877 1.273 0 2.742-.358 3.264-.796.523-.438 2.75-1.367 4.95-2.066 2.2-.699 4.9-1.623 6-2.055 1.1-.431 3.575-1.34 5.5-2.02 11.792-4.163 14.707-5.223 16.5-6.001 2.014-.873 24.417-8.385 30-10.059 1.65-.495 6.15-1.852 10-3.016 3.85-1.165 8.125-2.354 9.5-2.643 1.375-.29 3.918-1.16 5.651-1.935 1.733-.775 3.646-1.409 4.25-1.409 1.293 0 1.484-2.644.246-3.409-.469-.29-1.653-3.129-2.63-6.309-.978-3.18-3.744-10.601-6.147-16.491-2.404-5.89-4.37-11.42-4.37-12.288 0-.868-1.626-5.724-3.612-10.791-1.987-5.066-3.779-10.455-3.982-11.974-.203-1.52-1.728-5.954-3.388-9.855-1.66-3.901-3.03-7.833-3.045-8.738-.015-.905-1.365-4.782-3-8.616-1.635-3.834-2.973-7.787-2.973-8.783 0-.997-1.107-3.997-2.46-6.667-1.353-2.671-2.687-6.104-2.964-7.631-.649-3.581-1.869-4.755-3.376-3.248m694.961 203.3c-.632 2.2-1.152 4.782-1.155 5.738-.003.955-2.31 3.88-5.126 6.5-2.815 2.619-6.092 6.82-7.28 9.335-1.189 2.515-2.597 4.434-3.131 4.264-.533-.171-1.966 1.229-3.184 3.11-1.219 1.88-6.75 7.387-12.292 12.236-5.542 4.849-11.495 11.017-13.228 13.706-1.733 2.689-4.302 5.992-5.708 7.34-3.673 3.521-23.779 18.681-36.057 27.186-5.775 4.001-14.325 10.996-19 15.545-4.675 4.549-10.545 9.639-13.045 11.312C865.1 573.068 785.864 615.078 753 629.324c-26.244 11.376-59.773 22.882-93.512 32.09-37.843 10.327-71.723 16.829-117.753 22.595-78.198 9.796-142.789 11.567-198.735 5.45-21.343-2.334-59.862-9.055-79.504-13.872-19.075-4.679-25.174-6.526-67.996-20.598-16.479-5.415-30.896-9.52-37-10.535-8.145-1.354-15.285-3.769-38.5-13.022-15.675-6.248-28.65-10.926-28.833-10.396-.697 2.016-4.818.759-18.2-5.552-9.289-4.38-15.399-6.649-18.642-6.924-2.654-.225-8.37-1.568-12.703-2.985-4.332-1.416-8.488-2.575-9.235-2.575-.747 0-2.6 1.876-4.117 4.168-2.573 3.889-2.759 4.878-2.764 14.75-.008 14.418.831 26.964 1.765 26.402.425-.256.694.806.598 2.358-.335 5.45 11.326 39.576 21.809 63.822 25.769 59.598 60.188 110.425 105.304 155.5 57.75 57.699 124.505 97.816 205.018 123.207 24.952 7.869 32.111 9.669 57.5 14.457 26.564 5.01 31.562 5.643 59.5 7.53 29.94 2.022 31.088 2.028 62.5.317 31.123-1.695 32.851-1.9 63.034-7.506 26.936-5.003 34.529-6.848 57.5-13.979C770.962 959.595 863.672 891.233 927.234 797c27.683-41.041 48.421-84.466 63.755-133.5 7.775-24.86 9.389-31.421 14.398-58.5 5.296-28.63 5.756-32.375 7.502-61.093 1.822-29.973 1.821-31.22-.055-61.5-1.053-16.999-2.501-34.057-3.218-37.907l-1.304-7-1.151 4M18.079 614.583c.048 1.165.285 1.402.604.605.289-.722.253-1.585-.079-1.917-.332-.332-.568.258-.525 1.312" fill="undefined" fill-rule="evenodd"/></svg>