<svg id="visual" viewBox="0 0 1400 400" width="1400" height="400" xmlns="http://www.w3.org/2000/svg" xmlns:xlink="http://www.w3.org/1999/xlink" version="1.1"><path d="M0 190L13.7 193.2C27.3 196.3 54.7 202.7 82.2 202.3C109.7 202 137.3 195 164.8 185C192.3 175 219.7 162 247 167C274.3 172 301.7 195 329.2 211.7C356.7 228.3 384.3 238.7 411.8 246.2C439.3 253.7 466.7 258.3 494 248.3C521.3 238.3 548.7 213.7 576.2 217.3C603.7 221 631.3 253 658.8 257.8C686.3 262.7 713.7 240.3 741.2 222.5C768.7 204.7 796.3 191.3 823.8 202C851.3 212.7 878.7 247.3 906 246.8C933.3 246.3 960.7 210.7 988.2 191.7C1015.7 172.7 1043.3 170.3 1070.8 187C1098.3 203.7 1125.7 239.3 1153 246.8C1180.3 254.3 1207.7 233.7 1235.2 223.2C1262.7 212.7 1290.3 212.3 1317.8 206.8C1345.3 201.3 1372.7 190.7 1386.3 185.3L1400 180" fill="none" stroke-linecap="round" stroke-linejoin="miter" stroke="#888888" stroke-width="10" stroke-opacity="0.3"></path></svg>
