<?xml version="1.0" standalone="no"?><svg xmlns="http://www.w3.org/2000/svg" viewBox="0 0 1440 320"><path fill="#ffffff" fill-opacity="0.7" d="M0,192L13.3,202.7C26.7,213,53,235,80,245.3C106.7,256,133,256,160,266.7C186.7,277,213,299,240,266.7C266.7,235,293,149,320,128C346.7,107,373,149,400,160C426.7,171,453,149,480,165.3C506.7,181,533,235,560,218.7C586.7,203,613,117,640,101.3C666.7,85,693,139,720,170.7C746.7,203,773,213,800,229.3C826.7,245,853,267,880,234.7C906.7,203,933,117,960,101.3C986.7,85,1013,139,1040,149.3C1066.7,160,1093,128,1120,133.3C1146.7,139,1173,181,1200,208C1226.7,235,1253,245,1280,245.3C1306.7,245,1333,235,1360,218.7C1386.7,203,1413,181,1427,170.7L1440,160L1440,0L1426.7,0C1413.3,0,1387,0,1360,0C1333.3,0,1307,0,1280,0C1253.3,0,1227,0,1200,0C1173.3,0,1147,0,1120,0C1093.3,0,1067,0,1040,0C1013.3,0,987,0,960,0C933.3,0,907,0,880,0C853.3,0,827,0,800,0C773.3,0,747,0,720,0C693.3,0,667,0,640,0C613.3,0,587,0,560,0C533.3,0,507,0,480,0C453.3,0,427,0,400,0C373.3,0,347,0,320,0C293.3,0,267,0,240,0C213.3,0,187,0,160,0C133.3,0,107,0,80,0C53.3,0,27,0,13,0L0,0Z"></path></svg>
