<?xml version="1.0" encoding="UTF-8" standalone="no"?>
<!-- Created with Inkscape (http://www.inkscape.org/) -->
<svg
   xmlns:dc="http://purl.org/dc/elements/1.1/"
   xmlns:cc="http://web.resource.org/cc/"
   xmlns:rdf="http://www.w3.org/1999/02/22-rdf-syntax-ns#"
   xmlns:svg="http://www.w3.org/2000/svg"
   xmlns="http://www.w3.org/2000/svg"
   xmlns:sodipodi="http://sodipodi.sourceforge.net/DTD/sodipodi-0.dtd"
   xmlns:inkscape="http://www.inkscape.org/namespaces/inkscape"
   id="svg1923"
   sodipodi:version="0.32"
   inkscape:version="0.44"
   width="350.97714"
   height="332.64114"
   version="1.0"
   sodipodi:docbase="C:\Documents and Settings\Nevit\Belgelerim"
   sodipodi:docname="Fractal_star_05v06.svg">
  <metadata
     id="metadata1928">
    <rdf:RDF>
      <cc:Work
         rdf:about="">
        <dc:format>image/svg+xml</dc:format>
        <dc:type
           rdf:resource="http://purl.org/dc/dcmitype/StillImage" />
        <dc:date>2006</dc:date>
        <dc:creator>
          <cc:Agent>
            <dc:title>Nevit Dilmen</dc:title>
          </cc:Agent>
        </dc:creator>
        <dc:title>L-System Star</dc:title>
        <cc:license
           rdf:resource="http://creativecommons.org/licenses/GPL/2.0/" />
      </cc:Work>
      <cc:License
         rdf:about="http://creativecommons.org/licenses/GPL/2.0/">
        <cc:permits
           rdf:resource="http://web.resource.org/cc/Reproduction" />
        <cc:permits
           rdf:resource="http://web.resource.org/cc/Distribution" />
        <cc:requires
           rdf:resource="http://web.resource.org/cc/Notice" />
        <cc:permits
           rdf:resource="http://web.resource.org/cc/DerivativeWorks" />
        <cc:requires
           rdf:resource="http://web.resource.org/cc/ShareAlike" />
        <cc:requires
           rdf:resource="http://web.resource.org/cc/SourceCode" />
      </cc:License>
    </rdf:RDF>
  </metadata>
  <defs
     id="defs1926" />
  <sodipodi:namedview
     inkscape:window-height="573"
     inkscape:window-width="882"
     inkscape:pageshadow="2"
     inkscape:pageopacity="0.0"
     guidetolerance="10.0"
     gridtolerance="10.0"
     objecttolerance="10.0"
     borderopacity="1.0"
     bordercolor="#666666"
     pagecolor="#ffffff"
     id="base"
     showborder="false"
     inkscape:showpageshadow="false"
     inkscape:zoom="0.95928753"
     inkscape:cx="200"
     inkscape:cy="196.5"
     inkscape:window-x="44"
     inkscape:window-y="58"
     inkscape:current-layer="svg1923" />
  <path
     stroke="black" stroke-width="1" fill="none"
     d="M 68.989294,330.87523 C 69.376254,329.56885 70.774464,326.08312 72.096428,323.12916 C 73.418393,320.17519 74.5,317.64957 74.5,317.51665 C 74.5,317.38374 71.245839,314.85518 67.268531,311.89762 C 59.171397,305.87654 59.36674,305.54076 70.597502,306.17535 L 77.377666,306.55847 L 80.943271,296.617 C 82.904354,291.1492 84.39438,286.5623 84.25444,286.42389 C 84.1145,286.28548 80.197681,283.23938 75.550401,279.65478 L 67.100803,273.13732 L 60.083496,278.01842 C 56.223977,280.70303 52.907902,282.74124 52.71444,282.54777 C 52.520979,282.35431 53.508351,278.90168 54.908601,274.87527 C 56.308851,270.84885 57.127245,267.23911 56.727255,266.85361 C 56.327265,266.46812 53.085151,263.83239 49.522558,260.99643 L 43.045117,255.84015 L 51.750423,256.17008 L 60.455728,256.5 L 63.150945,248.75 C 64.633314,244.4875 66.183376,241 66.595528,241 C 67.365226,241 68.57258,244.33436 70.465602,251.68801 L 71.543706,255.87603 L 82.476752,256.18801 L 93.4098,256.5 L 96.60473,247.5 C 98.36194,242.55 99.96246,238.04935 100.16144,237.49856 C 100.36041,236.94778 97.27232,234.02278 93.299,230.99856 C 86.37097,225.72542 86.19226,225.48642 88.93986,225.16887 C 90.51565,224.98674 94.4145,224.98674 97.60398,225.16887 L 103.40304,225.5 L 106.95596,215.58777 C 108.91006,210.13605 110.39438,205.5623 110.25444,205.42389 C 110.1145,205.28548 106.19571,202.23786 101.54602,198.65139 L 93.09204,192.13055 L 87.04602,196.35429 C 83.72071,198.67734 80.481785,200.89716 79.848411,201.28721 C 78.44969,202.14858 80.479256,194.87458 82.995065,190.00954 C 83.90389,188.25207 84.50179,186.66971 84.32374,186.49319 C 84.14568,186.31666 80.20099,183.24193 75.557755,179.66045 L 67.11551,173.14867 L 58.233128,179.29378 C 51.076255,184.24513 49.442999,185.83336 49.825636,187.46945 C 50.086825,188.58625 51.031369,192.15154 51.924621,195.39231 C 52.817874,198.63308 53.374705,201.45863 53.162023,201.67131 C 52.949342,201.88399 50.028321,199.99304 46.670865,197.46919 L 40.5664,192.88039 L 34.553096,196.96394 C 25.252225,203.28004 25.067432,203.24987 27.833848,195.86694 C 29.145994,192.36512 30.512888,188.82435 30.87139,187.99856 C 31.331785,186.93807 29.401618,184.88232 24.299005,180.99856 C 17.370966,175.72542 17.192256,175.48642 19.939863,175.16887 C 21.515648,174.98674 25.423019,174.98674 28.62291,175.16887 L 34.440892,175.5 L 38.116267,165.69582 C 40.208852,160.11378 41.405859,155.55391 40.895821,155.10739 C 40.403119,154.67605 36.293322,151.74854 31.762939,148.60181 L 23.525877,142.88048 L 17.135948,147.44024 C 13.621487,149.94811 10.500503,152 10.200428,152 C 9.900353,152 10.728881,148.51888 12.041602,144.26418 C 13.354323,140.00948 14.106984,136.21884 13.714183,135.84054 C 13.321383,135.46223 10.075,132.82123 6.5,129.97165 L 0,124.79059 L 9.22583,125.14529 L 18.451659,125.5 L 21.15536,117.73147 C 22.826598,112.92951 24.152131,110.43714 24.62652,111.20471 C 25.048623,111.88769 26.141307,115.49603 27.054709,119.22324 L 28.715439,126 L 39.482221,126 L 50.249004,126 L 54.01123,115.97006 C 56.080454,110.4536 57.599429,105.7672 57.386728,105.55584 C 57.174028,105.34449 53.859636,102.88296 50.021413,100.08578 L 43.042827,95 L 51.669959,95 L 60.297091,95 L 63.043684,87.46932 C 64.554311,83.32744 66.153964,79.71386 66.59847,79.43914 C 67.042975,79.16442 67.877663,80.75323 68.453331,82.96983 C 69.028999,85.18642 69.962844,88.78328 70.528541,90.96285 L 71.557082,94.9257 L 80.661274,95.21285 L 89.76547,95.5 L 82.619942,100.42202 C 77.747124,103.77854 75.618323,105.84593 75.926861,106.92202 C 76.175704,107.78991 77.558691,112.4375 79.000166,117.25 L 81.621029,126 L 92.45906,126 L 103.29709,126 L 106.03249,118.5 C 107.53696,114.375 109.12692,111 109.56574,111 C 110.00455,111 111.10836,114.34764 112.01864,118.4392 L 113.67371,125.8784 L 124.56025,126.1892 L 135.4468,126.5 L 138.94432,116.75601 C 140.86796,111.39681 142.21582,106.423 141.93956,105.70309 C 141.6633,104.98318 140.21389,103.67114 138.71864,102.78744 C 137.22339,101.90374 134.20519,99.75394 132.01153,98.01012 L 128.02306,94.83953 L 136.73528,95.16976 L 145.4475,95.5 L 149.03495,85.50466 L 152.6224,75.50933 L 149.8112,73.23659 C 148.26504,71.98658 144.51483,68.997513 141.47739,66.59422 L 135.95478,62.224596 L 129.05312,67.104695 C 125.25721,69.78875 121.99837,71.8317 121.81126,71.64459 C 121.62415,71.45748 122.47335,68.1984 123.69838,64.402194 C 124.92341,60.605987 125.94243,57.155891 125.96286,56.735314 C 125.98328,56.314737 122.85736,53.466192 119.01635,50.405215 L 112.0327,44.839802 L 120.75873,45.169901 L 129.48476,45.5 L 132.12633,38.25 C 133.57919,34.2625 135.09207,31 135.48827,31 C 135.88448,31 137.21058,34.375 138.43516,38.5 L 140.66166,46 L 151.44808,46 L 162.2345,46 L 165.51581,37.25 C 167.32053,32.4375 168.98003,27.998449 169.20358,27.385442 C 169.42713,26.772435 166.33448,23.847435 162.33103,20.885442 C 155.34925,15.719904 155.17016,15.486413 157.94515,15.167257 C 159.53637,14.984248 163.23267,14.984248 166.15914,15.167257 L 171.48,15.5 L 174.6024,7.75 C 176.31972,3.4875 177.86433,0 178.03485,0 C 178.40536,0 179.96959,4.877686 181.48229,10.75 L 182.57709,15 L 192.2765,15 L 201.97592,15 L 194.28701,20.25 C 189.33627,23.630373 186.7372,26.034179 186.9887,27 C 187.20353,27.825 188.55023,32.409769 189.98137,37.188377 L 192.58344,45.876753 L 203.50466,46.188377 L 214.42589,46.5 L 217.31498,38.536632 L 220.20406,30.573263 L 221.29578,34.036632 C 221.89622,35.941484 222.88016,39.4125 223.48229,41.75 L 224.57709,46 L 234.28854,46.03121 L 244,46.062419 L 240.46188,48.28121 C 238.51592,49.501544 235.14092,51.831798 232.96188,53.45955 C 230.78285,55.087303 228.84125,56.521057 228.64721,56.645672 C 228.45318,56.770286 229.27589,59.938488 230.47547,63.686121 C 231.67504,67.433755 232.85531,71.12278 233.09828,71.88396 C 233.35507,72.68844 232.17084,72.24489 230.27002,70.82464 C 228.47151,69.48084 225.40051,67.184277 223.44557,65.721165 L 219.89114,63.060962 L 211.44557,68.672686 C 206.80051,71.75913 202.85505,74.40287 202.67788,74.54766 C 202.50072,74.69244 203.75754,79.35345 205.47082,84.90545 L 208.58589,95 L 218.11954,95 L 227.65319,95 L 223.3266,98.29891 C 220.94697,100.1133 217.5375,102.46033 215.75,103.51451 C 213.9625,104.5687 212.54086,105.89669 212.59079,106.46561 C 212.64073,107.03452 214.10323,111.775 215.84079,117 L 219,126.5 L 229.64265,126.78274 L 240.28531,127.06549 L 242.38242,120.28274 C 245.4962,110.21177 245.83741,110.10972 248.30888,118.51025 L 250.51241,126 L 260.5062,126 C 266.00279,126 270.8375,126.1125 271.25,126.25 C 271.84388,126.44796 278.09424,109.52506 278.41978,106.83778 C 278.4639,106.47356 275.4625,103.99856 271.75,101.33778 L 265,96.5 L 273.5,96 L 282,95.5 L 284.38675,88.25 C 285.69945,84.2625 287.0718,81 287.43641,81 C 287.80102,81 289.08711,84.35745 290.29439,88.46099 L 292.48945,95.92198 L 301.24473,96.21099 L 310,96.5 L 303.5,100.90481 C 299.925,103.32746 296.82476,105.4527 296.61058,105.62757 C 296.3964,105.80243 296.93088,108.54527 297.79832,111.72275 C 298.66576,114.90024 299.86333,119.38461 300.45959,121.68801 L 301.54371,125.87603 L 312.51389,126.18801 L 323.48408,126.5 L 326.11891,119.2694 C 328.85334,111.76548 329.81517,111.06214 330.94462,115.74055 C 331.31103,117.25825 332.04855,120.17017 332.58358,122.21148 L 333.55634,125.92296 L 342.26674,126.21148 L 350.97714,126.5 L 344.23857,131.44287 C 340.53236,134.16145 337.5,136.67013 337.5,137.01772 C 337.5,137.3653 338.625,140.95733 340,145 C 341.375,149.04267 342.5,152.52713 342.5,152.74325 C 342.5,153.42767 336.12699,148.80123 332.83278,145.72539 L 329.66555,142.76813 L 320.54912,149.07517 C 315.53508,152.54404 311.61336,155.85871 311.83419,156.4411 C 312.05501,157.0235 313.42951,161.42074 314.88862,166.21275 L 317.54156,174.9255 L 326.67337,175.21275 L 335.80518,175.5 L 329.90259,179.78993 C 326.65617,182.14939 323.44449,184.42162 322.76553,184.83934 C 321.81969,185.42126 322.10845,187.45775 324.00053,193.54942 C 325.35873,197.92224 326.47674,201.62833 326.48499,201.78518 C 326.52652,202.57431 322.47741,199.73498 318.239,196.0029 L 313.47799,191.81065 L 306.7441,196.8271 C 303.04046,199.58615 299.86452,201.69786 299.68645,201.51979 C 299.50838,201.34172 300.50835,197.90168 301.9086,193.87527 C 303.30885,189.84885 304.12724,186.24056 303.72725,185.85685 C 303.32726,185.47313 299.63044,182.47103 295.51209,179.18551 L 288.02419,173.21184 L 279.26209,179.27374 C 274.44294,182.60778 270.50675,185.59762 270.51501,185.91782 C 270.52326,186.23802 271.61342,189.9875 272.93759,194.25 C 274.26175,198.5125 275.03351,202 274.6526,202 C 274.27169,202 271.26903,199.80868 267.98002,197.13039 L 262,192.26079 L 253.25,198.29821 C 248.4375,201.6188 244.5,204.68895 244.5,205.12077 C 244.5,205.55259 244.93522,206.93957 245.46715,208.20295 C 245.99908,209.46633 247.38776,213.74554 248.55311,217.71232 L 250.67191,224.92464 L 259.29731,225.21232 L 267.92271,225.5 L 261.21135,229.86746 C 257.52011,232.26956 254.5,234.46968 254.5,234.75662 C 254.5,235.04355 255.86932,239.71569 257.54294,245.13916 L 260.58589,255 L 270.54294,255 C 276.01932,255 280.8375,255.05157 281.25,255.11461 C 281.6625,255.17765 283.15729,251.74798 284.57175,247.49313 L 287.14349,239.75704 L 289.9232,247.37852 L 292.70291,255 L 301.83004,255 L 310.95717,255 L 303.97859,260.08578 C 300.14036,262.88296 296.86898,265.30148 296.70884,265.46027 C 296.54871,265.61906 297.28636,269.06796 298.34807,273.12449 C 299.40978,277.18102 300.10813,280.68267 299.89995,280.90594 C 299.69178,281.12921 296.91815,279.26661 293.73633,276.76684 L 287.95121,272.22179 L 279.67446,277.99538 C 275.12224,281.17085 271.21263,283.95404 270.98642,284.18024 C 270.76022,284.40645 271.90824,289.0317 273.53757,294.45858 C 275.16691,299.88545 276.5,304.45984 276.5,304.62388 C 276.5,304.78792 280.31874,305.05215 284.98609,305.21107 L 293.47218,305.5 L 288.23609,309.2875 C 285.35624,311.37063 282.41279,313.43745 281.6951,313.88045 C 280.64281,314.52997 280.78714,316.20137 282.4406,322.51411 C 283.56832,326.81963 284.3558,330.47754 284.19054,330.64279 C 284.02529,330.80804 281.21481,328.76073 277.94504,326.0932 L 272,321.24315 L 266,325.41059 C 262.7,327.70268 259.43465,329.92629 258.74367,330.35194 C 257.68222,331.00581 259.87021,323.93487 262.89344,316.9411 C 263.39499,315.78084 261.24618,313.77637 254.49039,309.1025 L 245.41347,302.8228 L 237.70674,308.55222 C 233.46803,311.7034 229.65245,314.58833 229.22766,314.96316 C 228.60368,315.51377 230.32333,322.64934 233.04743,330.81295 C 233.48634,332.12828 232.18185,331.31249 224.01337,325.16328 L 220.02674,322.16215 L 214.01337,326.40849 C 205.1986,332.63304 205.5218,332.57795 207.01974,327.60067 C 207.74734,325.18302 209.05306,321.83118 209.92133,320.15213 C 210.7896,318.47309 211.5,316.89457 211.5,316.64432 C 211.5,316.39407 208.24921,313.78422 204.27601,310.84466 C 197.36119,305.72873 197.17513,305.48583 199.92848,305.16887 C 201.51052,304.98674 205.42427,304.98674 208.62569,305.16887 L 214.44646,305.5 L 217.99747,295.60757 C 219.95052,290.16673 221.42507,285.59299 221.27424,285.44369 C 221.12341,285.29439 217.19344,282.2361 212.54097,278.6475 L 204.08194,272.12276 L 198.04097,276.3888 C 189.19469,282.6359 189.52133,282.57952 191.01974,277.60067 C 191.74734,275.18302 193.09135,271.75713 194.00643,269.98757 C 194.9215,268.21802 195.2944,266.44461 194.8351,266.04667 C 194.37579,265.64873 190.36291,262.79758 185.91758,259.71079 L 177.83516,254.09844 L 169.41758,259.69143 C 164.78791,262.76757 160.85792,265.39999 160.68428,265.54126 C 160.35322,265.81059 161.48089,270.19422 163.98099,278.3567 L 165.46856,283.2134 L 161.98428,280.6067 C 160.06793,279.17301 156.99339,276.87376 155.15199,275.49724 L 151.80397,272.99447 L 148.40199,275.47088 C 146.53089,276.83291 142.6375,279.59786 139.75,281.61522 C 136.8625,283.63259 134.5,285.50707 134.5,285.78074 C 134.5,286.05441 135.86932,290.71569 137.54294,296.13916 L 140.58589,306 L 149.29294,306.00497 L 158,306.00993 L 155,308.50512 C 153.35,309.87747 150.3125,311.9831 148.25,313.18429 C 146.1875,314.38549 144.50675,315.62292 144.51501,315.93414 C 144.52326,316.24536 145.63932,320.07144 146.99514,324.43653 C 148.35096,328.80163 149.34503,332.48831 149.20418,332.62915 C 149.06333,332.77 145.90498,330.65067 142.18562,327.91951 L 135.42315,322.95379 L 129.08459,327.47689 C 125.59837,329.9646 122.51305,332 122.22832,332 C 121.469,332 122.96795,326.09001 124.859,321.62788 C 125.76155,319.49821 126.5,317.45329 126.5,317.08362 C 126.5,316.71395 122.67702,313.58003 118.00448,310.11936 L 109.50896,303.82723 L 101.25448,309.54822 C 96.71452,312.69477 92.65245,315.57869 92.22766,315.95695 C 91.6045,316.51184 93.28811,323.51101 96.03215,331.77314 C 96.63216,333.57973 93.96,332.02652 88.01199,327.11138 L 83.147626,323.0917 L 77.073813,327.33486 C 67.962709,333.69988 68.180916,333.60432 68.989294,330.87523 z "
     id="path1932" />
</svg>
